<svg xmlns="http://www.w3.org/2000/svg" viewBox="0 0 94.19 94.85"><defs><style>.cls-1{fill:#1f1215;}.cls-1,.cls-2,.cls-3{fill-rule:evenodd;}.cls-2{fill:#bdbcbc;}.cls-3{fill:#dadada;}</style></defs><g id="Calque_2" data-name="Calque 2"><g id="boule_molécule_2" data-name="boule molécule 2"><path class="cls-1" d="M15.34,79.89a66,66,0,0,1-3.52-6.56C10.44,70,10.44,70,9.2,66.27a49.17,49.17,0,0,1-4.42-4A29.65,29.65,0,0,1,2,58.58a11.79,11.79,0,0,0,.29,3.64h0c-.07-.21-.14-.42-.2-.63h0A12.24,12.24,0,0,1,1.82,58C1,54.52,1,54.52.5,51.18c-.28-3-.28-3-.36-5.81A1.1,1.1,0,0,1,0,44.89H0c0-.2,0-.4,0-.6a.78.78,0,0,0,.11.37v-.33l0-.28a1,1,0,0,1-.1-.34h0c0-.21,0-.41.05-.62a.56.56,0,0,0,.13.3,58.47,58.47,0,0,1,1.1-5.81A67.9,67.9,0,0,1,3.59,30.8a17.93,17.93,0,0,1,1.19-4.31h0l.31-.64h0A17.38,17.38,0,0,0,3.86,30.3,35,35,0,0,1,7,27a51.11,51.11,0,0,1,5.15-3.81C13.63,25,13.63,25,15.64,27.25c2.32,2.49,2.32,2.49,5.11,5.4,6.58-4.87,6.58-4.87,13.69-9.49,0-4.58,0-4.58.05-8.55.2-3.59.2-3.59.44-6.5C39.2,6.16,39.2,6.16,43.31,4.6a74.93,74.93,0,0,1,7.48-2,81.35,81.35,0,0,1,8.48,2.31c4.27,1.64,4.27,1.64,8.49,3.59a54,54,0,0,1,3.2,6c1.58,3.91,1.58,3.91,3.05,8.36-3.36,2-3.36,2-7.25,4.53-4.42,2.87-4.42,2.87-9.31,6.11-6-2.79-6-2.79-11.87-5.39-5.5-2.24-5.5-2.24-10.7-4.19-7.15,4.65-7.15,4.65-13.76,9.49-.7,5.69-.7,5.69-1.16,11.53-.23,5.55-.23,5.55-.23,11,4.51,2.72,4.51,2.72,9.42,5.44,5.62,2.9,5.62,2.9,11.45,5.66.81,5.56.81,5.56,1.65,10.49.74,4,.74,4,1.48,7.41a97.06,97.06,0,0,0,13,3.21l-.51.44A97,97,0,0,1,43.37,85.5c-3.81,1.33-3.81,1.33-7.26,2.3a45.63,45.63,0,0,1-6,1,85.74,85.74,0,0,1-7.86-4.07,81.72,81.72,0,0,1-6.87-4.84Zm21-57.31c-.09-4.42-.09-4.42-.11-8.27.09-3.28.09-3.28.23-6,3.89-1.76,3.89-1.76,7.68-3.2a67.75,67.75,0,0,1,6.94-1.92c3.88,1,3.88,1,7.86,2.21,4,1.52,4,1.52,7.88,3.28,1.41,2.58,1.41,2.58,2.83,5.63C71,17.85,71,17.85,72.35,21.88c-3.17,1.83-3.17,1.83-6.76,4-4,2.53-4,2.53-8.45,5.38-5.36-2.49-5.36-2.49-10.71-4.81-5.19-2.08-5.19-2.08-10.11-3.91ZM10.38,27.26l.51-.73c2.61,3.51,2.61,3.51,6.38,8l-.62.85c-3.71-4.57-3.71-4.57-6.27-8.13ZM8.91,65.08c1.72-1.85,1.72-1.85,4-4,1-.93,1-.93,2-1.89,1.62-1.46,1.62-1.46,3.4-3,0-5.54,0-5.54.2-11.17.45-5.59.45-5.59,1.12-11-2.72-2.93-2.72-2.93-5-5.47-1.82-2.17-1.82-2.17-3.25-3.94A50,50,0,0,0,6.7,28a32.3,32.3,0,0,0-3.09,3.23A70,70,0,0,0,1.42,38a59.14,59.14,0,0,0-1.17,6.4,59.65,59.65,0,0,0,.36,6.46c.55,3.43.55,3.43,1.35,6.94a29.17,29.17,0,0,0,2.69,3.44,57.33,57.33,0,0,0,4.26,3.86Zm6.92,14.69a63.54,63.54,0,0,1-3.16-6.08c-1.46-3.61-1.46-3.61-2.76-7.54,1.7-1.65,1.7-1.65,3.84-3.58,2.59-2.27,2.59-2.27,5.66-4.84,4.36,2.67,4.36,2.67,9.11,5.35,5,2.62,5,2.62,10.25,5.13.83,5,.83,5,1.65,9.39.77,3.86.77,3.86,1.55,7.15-3.63,1.3-3.63,1.3-6.93,2.26a46.13,46.13,0,0,1-5.53,1c-3.67-1.79-3.67-1.79-7.24-3.8-3.35-2.18-3.35-2.18-6.44-4.47Z"/><path class="cls-2" d="M44.17,0h0c-.41.21-.41.21-.84.73A73.27,73.27,0,0,0,36,2.44a79.28,79.28,0,0,0-7.51,2.88,21.45,21.45,0,0,0-4,.74,12.58,12.58,0,0,0-1.91.86h0c.33-.21.67-.41,1-.61h0a11.79,11.79,0,0,1,1.74-.77,20.61,20.61,0,0,1,3.59-.75c3.35-1.38,3.35-1.38,6.71-2.52A67.32,67.32,0,0,1,42.18.71a2.11,2.11,0,0,1,.93-.63L44.17,0ZM26.46,4.76l.73-.35h0c.92-.28,4-1.3,7.5-2.49L39.77.51h0l.79-.13h0c-.59.18-2.7.77-5.65,1.58-4,1.39-7.56,2.55-8.44,2.79Z"/><path class="cls-2" d="M31.6,91.29a25.12,25.12,0,0,1-2.79-3.1c-1.26-1.87-1.26-1.87-2.58-4.12-3.84-1.83-3.84-1.83-7.41-3.8-3.21-2-3.21-2-6.08-4.16-1.1,1-1.1,1-1.68,1.52l-.39-.48a17.39,17.39,0,0,1,1.58-1.62c-2-3.29-2-3.29-3.93-6.79-1.53-3.27-1.53-3.27-2.88-6.61a24.14,24.14,0,0,1-3.88-4.21c-.06-.33-.06-.33-.11-.65a21.2,21.2,0,0,0,3.67,4L5,60.79a2.62,2.62,0,0,1,0-.28,20.59,20.59,0,0,1-3.6-3.8c-.05-.33-.05-.33-.08-.61A21.53,21.53,0,0,0,5,59.89c.27-2.91.27-2.91.75-6.13.82-3.85.82-3.85,2-8A69,69,0,0,1,5,35.53c.19-.32.19-.32.36-.58A73.43,73.43,0,0,0,8.16,45.28c2.85-1,2.85-1,6.25-2,4.23-1.15,4.23-1.15,9.06-2.39,3.92,3.93,3.92,3.93,8.22,8.07,4.28,4,4.28,4,8.71,7.94,7.51-4.65,7.51-4.65,15.09-9.43-.61-6-.61-6-1.26-11.88s-.73-6-1.49-11.49c4.61-2.67,4.61-2.67,8.82-5,3.8-1.88,3.8-1.88,7.13-3.37C73,18.31,73,18.31,77.09,21c3.64,2.76,3.64,2.76,6.86,5.52,1.27,4.35,1.27,4.35,2.31,8.93.81,4.84.81,4.84,1.33,9.76-2.27,2.81-2.27,2.81-5,5.94-3.27,3.32-3.27,3.32-7,6.81-4.26-2.12-4.26-2.12-9.08-4.46L56,48.51c-7.54,4.77-7.54,4.77-15,9.39-.18,5.81-.18,5.81-.32,11.22-.06,4.62-.06,4.62-.07,8.75,4.81,1.83,4.81,1.83,9.5,3.38,4.78,1.32,4.78,1.32,9.18,2.31-.17,2.87-.17,2.87-.38,5.16a23.82,23.82,0,0,1-.58,3,41.22,41.22,0,0,0,7.74-1l-.42.23A40.88,40.88,0,0,1,58,92c-3.32,1-3.32,1-6.45,1.78a52.78,52.78,0,0,1-6,.78,68.73,68.73,0,0,1-6.83-1.11c-3.52-1-3.52-1-7.06-2.16ZM57.43,47c-.59-5.8-.59-5.8-1.24-11.47-.7-5.42-.7-5.42-1.44-10.49,4.13-2.44,4.13-2.44,8-4.55,3.43-1.8,3.43-1.8,6.47-3.27,4,2.38,4,2.38,7.72,4.84,3.39,2.51,3.39,2.51,6.43,5.06,1.13,4.05,1.13,4.05,2.08,8.32.75,4.47.75,4.47,1.27,9C84.51,47,84.51,47,81.93,49.77c-3,3-3,3-6.39,6.16-3.92-2-3.92-2-8.29-4.2-4.76-2.34-4.76-2.34-9.82-4.78ZM25.91,83.28c2.83-.86,2.83-.86,6.09-2.07L34.73,80c2.06-1,2.06-1,4.26-2-.07-4.22-.07-4.22-.05-9,.06-5.21.06-5.21.21-10.8-4.39-3.94-4.39-3.94-8.61-7.88-4-3.87-4-3.87-7.62-7.57-4.47,1.09-4.47,1.09-8.41,2.11-3.38,1-3.38,1-6.22,1.81-1.13,4.06-1.13,4.06-1.95,7.85a63.48,63.48,0,0,0-.81,6.61C7,65,7,65,8.74,68.66c1.91,3.55,1.91,3.55,4,6.89,2.8,2,2.8,2,6,4,3.47,1.91,3.47,1.91,7.2,3.68Zm6.51,8.06A23.21,23.21,0,0,1,30,88.49a42.15,42.15,0,0,1-2.64-4.38c2.67-.79,2.67-.79,5.7-1.87,3.43-1.39,3.43-1.39,7.14-3.12,4.65,1.74,4.65,1.74,9.15,3.21,4.32,1.17,4.32,1.17,8.36,2.06-.1,2.54-.1,2.54-.23,4.6a26.52,26.52,0,0,1-.38,2.91c-3.17,1-3.17,1-6.2,1.72-2.91.49-2.91.49-5.59.76C42.19,94,42.19,94,39,93.31c-3.25-.87-3.25-.87-6.56-2Z"/><path class="cls-2" d="M81.85,14.65c-.9-.89-.92-.9-2-1.82a38.24,38.24,0,0,0-4.45-3,64.23,64.23,0,0,0-5.69-4,54.8,54.8,0,0,0-5.26-2.71A44.8,44.8,0,0,0,57,1.81a14.58,14.58,0,0,1,.8,2.25c.45,1.83.45,1.83.9,4.17-4.08.77-4.08.77-8.46,1.89-4.66,1.47-4.66,1.47-9.54,3.29-4.11-1.59-4.11-1.59-7.82-2.79a53.81,53.81,0,0,0-6.09-1.38,30.41,30.41,0,0,1,2.58-4,16.51,16.51,0,0,1,2.42-2.36A66.17,66.17,0,0,1,38.3,1a63.15,63.15,0,0,1,6.28-1,48.37,48.37,0,0,1,5.77.32,62,62,0,0,1,6.26,1.31A42.13,42.13,0,0,1,64.09,3a2.12,2.12,0,0,0-.29-.18h0l.89.34h0l.3.16a57.16,57.16,0,0,1,5.14,2.64c2.62,1.69,2.62,1.69,5.23,3.63a39.48,39.48,0,0,1,4.06,2.79c.78.67.82.71,1.46,1.31.33.32.65.65,1,1Zm-26.06-13a13.74,13.74,0,0,1,.64,2.19c.33,1.62.33,1.62.63,3.66-3.67.72-3.67.72-7.64,1.72-4.21,1.28-4.21,1.28-8.53,2.84-3.69-1.34-3.69-1.34-7-2.37-3-.73-3-.73-5.67-1.19A37,37,0,0,1,30.43,5a19.36,19.36,0,0,1,2.11-2.18c3.05-1,3.05-1,6.11-1.78C41.58.44,41.58.44,44.44.08a49.73,49.73,0,0,1,5.34.34c2.92.5,2.92.5,6,1.24ZM74.94,8.93a.39.39,0,0,1-.16,0,59,59,0,0,0-8.34-5l.27.11a57.56,57.56,0,0,1,8.23,4.95Z"/><path class="cls-3" d="M45.43,94.81l1,0c2,0,4,0,6.07-.19,1.32-.15,2.59-.32,3.85-.54a64.23,64.23,0,0,1-7.45.79c-.71,0-1.38,0-2,0h-.19l-1.19,0Zm34-82.49.58.53h0A44.16,44.16,0,0,1,83,16.21c.94,1.3,1.88,2.72,2.77,4.22C87,22,88.08,23.57,89.11,25.16c.36.61.71,1.23,1,1.81.43.79.83,1.6,1.19,2.38a.31.31,0,0,1,.09.11h0c.11.26.22.53.32.79h0s0,0,0,0c.54,1.61,1,3.34,1.49,5.09q.61,3,1,6.15a17.33,17.33,0,0,1-1,2.57,26.44,26.44,0,0,1-2,3.08,109.12,109.12,0,0,1-1.36,11.47.38.38,0,0,1-.3,0A105.7,105.7,0,0,0,91,47.08c-.89-1.44-1.94-3-3.14-4.64-1.45-1.77-3.08-3.67-4.86-5.61-.25-3-.57-5.89-1-8.63-.5-2.59-1-5-1.6-7.24a31.64,31.64,0,0,1,3.27-.59c.71-.07,1.33-.07,1.82-.08-.93-1.58-1.89-3-2.88-4.42a44.13,44.13,0,0,0-3-3.46A71.29,71.29,0,0,0,72.7,7.25s0,0,0,0a71.07,71.07,0,0,1,6.78,5.11ZM34.84,93.2l-1.05-.3h0l.73.19a23.21,23.21,0,0,0,3,.3,25.2,25.2,0,0,1-2.77-1.79,40,40,0,0,1-3-2.83c-2.26-.81-4.44-1.69-6.56-2.64s-4-2.06-5.86-3.13a14.6,14.6,0,0,1-1.5.68,3.09,3.09,0,0,1-.8.16c.64.56,1.27,1.07,1.94,1.59-.5-.37-1-.75-1.47-1.15s-.82-.7-1.24-1.07a2.62,2.62,0,0,0,.79-.2,16.65,16.65,0,0,0,1.58-.88c2,1.2,4.21,2.38,6.49,3.49s4.64,2,7,2.8a64.53,64.53,0,0,0,7.4-2.83c-.62-1.82-1.23-3.87-1.79-6.09S36.61,74.7,36.05,72c-3.17-1-6.22-2.07-9.19-3.19s-5.87-2.44-8.55-3.7c-1.09-3.1-2.08-6.28-3-9.5-.78-3-1.44-6.12-2-9.2C10.43,45.1,8,43.93,6,42.83c.05-.25.1-.49.15-.78q3,1.58,7.3,3.48c1.62-2.26,3.41-4.58,5.35-7,2.16-2.56,4.43-5.1,6.83-7.68,3,.63,6.26,1.35,9.64,2.1,3.55.86,7.14,1.78,10.87,2.73,1,3.67,2,7.45,3,11.24.87,3.3,1.68,6.57,2.58,9.78,3.63.34,7.18.66,10.62.93s6.51.46,9.51.61q4.41-6,8.07-11.66c.16.2.32.39.5.59-2.4,3.74-5,7.64-8,11.61,1.21,2.54,2.34,4.91,3.35,7.12.76,1.9,1.46,3.62,2.08,5.23a68.47,68.47,0,0,0,8.08-3c-.07.22-.13.43-.18.6a59,59,0,0,1-7.68,3,.63.63,0,0,0,.11.28c-.09.13-.14.25-.2.35a63.38,63.38,0,0,0,7.58-3c-.07.21-.15.43-.2.6A57.63,57.63,0,0,1,77.7,73c-1.22,2.12-2.47,4.15-3.66,6q-2.15,3-4.17,5.52A22.38,22.38,0,0,0,73.46,86l-.49.36A18.1,18.1,0,0,1,69.26,85c-2.38,1.09-4.73,2.08-7.11,3-2.62.88-5.27,1.66-7.88,2.33-2.19-.43-4.53-1-6.92-1.69S42.57,87,40.16,86a72,72,0,0,1-7.42,2.78,34.22,34.22,0,0,0,3,2.93,21.64,21.64,0,0,0,2.9,1.92,23.17,23.17,0,0,1-3.32-.31l-.51-.13ZM81.44,22c1.08-.26,2-.46,2.86-.61a13.28,13.28,0,0,1,1.83-.15c1.13,1.5,2.18,3,3.12,4.47s1.59,2.85,2.27,4.26c.56,1.67,1,3.35,1.49,5.14s.7,3.71.95,5.62A18.32,18.32,0,0,1,93,43c-.52.87-1.16,1.81-1.9,2.81-.86-1.38-1.87-2.91-3-4.49-1.29-1.63-2.7-3.31-4.28-5.07-.24-2.64-.56-5.26-.92-7.7S82,24.05,81.44,22ZM52,58.23c-2.72,2.58-5.35,5.1-7.94,7.51-1,.85-1.91,1.71-2.83,2.55-1.29,1.17-2.56,2.3-3.77,3.36.56,2.77,1.13,5.38,1.72,7.79.5,2.17,1,4.17,1.58,6,2.49,1,4.92,1.9,7.29,2.67s4.44,1.21,6.53,1.65c2.44-.65,4.94-1.4,7.41-2.24s4.8-1.91,7.18-3C70.54,82.82,71.89,81,73.27,79s2.64-4.3,3.94-6.66q-1-2.61-2.35-5.68c-1-2.2-2.17-4.56-3.42-7.07-2.9-.11-6-.3-9.22-.51s-6.71-.54-10.19-.87Zm-7.36-21.1c.88,3.41,1.8,6.82,2.77,10.26s1.8,6.85,2.7,10.19c-2.48,2.4-4.92,4.74-7.31,7s-4.56,4.15-6.69,6q-4.65-1.45-9-3.1c-2.82-1.08-5.48-2.22-8-3.33-1-2.88-1.88-5.82-2.72-8.78s-1.42-6-2-9C16,44.19,17.8,41.91,19.7,39.6s4.08-4.67,6.27-7c2.79.64,5.74,1.32,8.78,2.06,3.24.8,6.52,1.64,9.92,2.51Z"/></g></g></svg>